<mxfile host="app.diagrams.net" agent="Mozilla/5.0 (X11; Linux x86_64; rv:141.0) Gecko/20100101 Firefox/141.0" version="28.0.7">
  <diagram name="Page-1" id="L4sqTAkHkP9NDWrMSGok">
    <mxGraphModel dx="2066" dy="2268" grid="1" gridSize="10" guides="1" tooltips="1" connect="1" arrows="1" fold="1" page="1" pageScale="1" pageWidth="850" pageHeight="1100" math="0" shadow="0">
      <root>
        <mxCell id="0" />
        <mxCell id="1" parent="0" />
        <mxCell id="rILkc2YSf4ri_xyHiDEj-1" value="Cargohold" style="rounded=0;whiteSpace=wrap;html=1;" vertex="1" parent="1">
          <mxGeometry x="1000" y="40" width="120" height="60" as="geometry" />
        </mxCell>
        <mxCell id="rILkc2YSf4ri_xyHiDEj-3" value="Spar" style="rounded=0;whiteSpace=wrap;html=1;" vertex="1" parent="1">
          <mxGeometry x="680" y="40" width="120" height="60" as="geometry" />
        </mxCell>
        <mxCell id="rILkc2YSf4ri_xyHiDEj-4" value="Brig" style="rounded=0;whiteSpace=wrap;html=1;" vertex="1" parent="1">
          <mxGeometry x="840" y="40" width="120" height="60" as="geometry" />
        </mxCell>
        <mxCell id="rILkc2YSf4ri_xyHiDEj-5" value="Galley" style="rounded=0;whiteSpace=wrap;html=1;" vertex="1" parent="1">
          <mxGeometry x="520" y="40" width="120" height="60" as="geometry" />
        </mxCell>
        <mxCell id="rILkc2YSf4ri_xyHiDEj-6" value="&lt;div&gt;Cannon&lt;/div&gt;" style="rounded=0;whiteSpace=wrap;html=1;" vertex="1" parent="1">
          <mxGeometry x="360" y="40" width="120" height="60" as="geometry" />
        </mxCell>
        <mxCell id="rILkc2YSf4ri_xyHiDEj-7" value="Gundeck" style="rounded=0;whiteSpace=wrap;html=1;" vertex="1" parent="1">
          <mxGeometry x="40" y="40" width="120" height="60" as="geometry" />
        </mxCell>
        <mxCell id="rILkc2YSf4ri_xyHiDEj-9" value="&lt;div&gt;Cassandra&lt;/div&gt;" style="strokeWidth=2;html=1;shape=mxgraph.flowchart.database;whiteSpace=wrap;" vertex="1" parent="1">
          <mxGeometry x="540" y="350" width="80" height="80" as="geometry" />
        </mxCell>
        <mxCell id="rILkc2YSf4ri_xyHiDEj-11" value="RabbitMQ" style="strokeWidth=2;html=1;shape=mxgraph.flowchart.database;whiteSpace=wrap;" vertex="1" parent="1">
          <mxGeometry x="220" y="350" width="80" height="80" as="geometry" />
        </mxCell>
        <mxCell id="rILkc2YSf4ri_xyHiDEj-13" value="ElasticSearch" style="strokeWidth=2;html=1;shape=mxgraph.flowchart.database;whiteSpace=wrap;" vertex="1" parent="1">
          <mxGeometry x="860" y="-120" width="80" height="80" as="geometry" />
        </mxCell>
        <mxCell id="rILkc2YSf4ri_xyHiDEj-17" value="Postgres" style="strokeWidth=2;html=1;shape=mxgraph.flowchart.database;whiteSpace=wrap;" vertex="1" parent="1">
          <mxGeometry x="860" y="350" width="80" height="80" as="geometry" />
        </mxCell>
        <mxCell id="rILkc2YSf4ri_xyHiDEj-22" value="Background-Worker" style="rounded=0;whiteSpace=wrap;html=1;" vertex="1" parent="1">
          <mxGeometry x="200" y="40" width="120" height="60" as="geometry" />
        </mxCell>
        <mxCell id="rILkc2YSf4ri_xyHiDEj-25" value="S3 Service" style="strokeWidth=2;html=1;shape=mxgraph.flowchart.database;whiteSpace=wrap;" vertex="1" parent="1">
          <mxGeometry x="1020" y="-120" width="80" height="80" as="geometry" />
        </mxCell>
        <mxCell id="rILkc2YSf4ri_xyHiDEj-27" value="" style="endArrow=classic;html=1;rounded=0;" edge="1" parent="1" source="rILkc2YSf4ri_xyHiDEj-1" target="rILkc2YSf4ri_xyHiDEj-25">
          <mxGeometry width="50" height="50" relative="1" as="geometry">
            <mxPoint x="400" y="600" as="sourcePoint" />
            <mxPoint x="450" y="550" as="targetPoint" />
          </mxGeometry>
        </mxCell>
        <mxCell id="rILkc2YSf4ri_xyHiDEj-35" value="Redis" style="strokeWidth=2;html=1;shape=mxgraph.flowchart.database;whiteSpace=wrap;" vertex="1" parent="1">
          <mxGeometry x="220" y="-120" width="80" height="80" as="geometry" />
        </mxCell>
        <mxCell id="rILkc2YSf4ri_xyHiDEj-37" value="&lt;div&gt;AWS&lt;/div&gt;&lt;div&gt;SNS/SQS&lt;/div&gt;" style="strokeWidth=2;html=1;shape=mxgraph.flowchart.database;whiteSpace=wrap;" vertex="1" parent="1">
          <mxGeometry x="60" y="-120" width="80" height="80" as="geometry" />
        </mxCell>
        <mxCell id="rILkc2YSf4ri_xyHiDEj-39" value="" style="endArrow=classic;html=1;rounded=0;" edge="1" parent="1" source="rILkc2YSf4ri_xyHiDEj-37" target="rILkc2YSf4ri_xyHiDEj-40">
          <mxGeometry width="50" height="50" relative="1" as="geometry">
            <mxPoint x="540" y="-10" as="sourcePoint" />
            <mxPoint x="1200" y="-100" as="targetPoint" />
          </mxGeometry>
        </mxCell>
        <mxCell id="rILkc2YSf4ri_xyHiDEj-40" value="" style="shape=mxgraph.networks2.icon;aspect=fixed;fillColor=#EDEDED;strokeColor=#000000;gradientColor=#5B6163;network2IconShadow=1;network2bgFillColor=none;network2Icon=mxgraph.networks2.antenna;network2IconYOffset=0.0004;network2IconW=0.508;network2IconH=0.9997;" vertex="1" parent="1">
          <mxGeometry x="87.29999999999995" y="-231.37250000000003" width="25.4" height="49.985" as="geometry" />
        </mxCell>
        <mxCell id="rILkc2YSf4ri_xyHiDEj-47" value="WebSockets" style="text;html=1;align=center;verticalAlign=middle;whiteSpace=wrap;rounded=0;" vertex="1" parent="1">
          <mxGeometry x="390" y="-270" width="60" height="30" as="geometry" />
        </mxCell>
        <mxCell id="rILkc2YSf4ri_xyHiDEj-50" value="" style="endArrow=classic;startArrow=classic;html=1;rounded=0;exitX=0.5;exitY=1;exitDx=0;exitDy=0;exitPerimeter=0;entryX=0.5;entryY=0;entryDx=0;entryDy=0;" edge="1" parent="1" source="rILkc2YSf4ri_xyHiDEj-13" target="rILkc2YSf4ri_xyHiDEj-4">
          <mxGeometry width="50" height="50" relative="1" as="geometry">
            <mxPoint x="420" y="200" as="sourcePoint" />
            <mxPoint x="470" y="150" as="targetPoint" />
          </mxGeometry>
        </mxCell>
        <mxCell id="rILkc2YSf4ri_xyHiDEj-51" value="" style="endArrow=classic;startArrow=classic;html=1;rounded=0;" edge="1" parent="1" source="rILkc2YSf4ri_xyHiDEj-7" target="rILkc2YSf4ri_xyHiDEj-35">
          <mxGeometry width="50" height="50" relative="1" as="geometry">
            <mxPoint x="420" y="200" as="sourcePoint" />
            <mxPoint x="470" y="150" as="targetPoint" />
          </mxGeometry>
        </mxCell>
        <mxCell id="rILkc2YSf4ri_xyHiDEj-55" value="" style="shape=mxgraph.networks2.icon;aspect=fixed;fillColor=#EDEDED;strokeColor=#000000;gradientColor=#5B6163;network2IconShadow=1;network2bgFillColor=none;network2Icon=mxgraph.networks2.load_balancer;network2IconW=0.86;network2IconH=0.76;" vertex="1" parent="1">
          <mxGeometry x="398.5" y="-230" width="43" height="38" as="geometry" />
        </mxCell>
        <mxCell id="rILkc2YSf4ri_xyHiDEj-56" value="" style="fillColorStyles=neutralFill;neutralFill=#9DA6A8;shape=mxgraph.networks2.icon;aspect=fixed;fillColor=#EDEDED;strokeColor=#000000;gradientColor=#5B6163;network2IconShadow=1;network2bgFillColor=none;network2Icon=mxgraph.networks2.mail_server;network2IconYOffset=-0.02556;network2IconW=1;network2IconH=0.7875;" vertex="1" parent="1">
          <mxGeometry x="715" y="-231.37" width="50" height="39.375" as="geometry" />
        </mxCell>
        <mxCell id="rILkc2YSf4ri_xyHiDEj-57" value="" style="endArrow=classic;html=1;rounded=0;exitX=0.5;exitY=0;exitDx=0;exitDy=0;entryX=0.5;entryY=0.974;entryDx=0;entryDy=0;entryPerimeter=0;" edge="1" parent="1" source="rILkc2YSf4ri_xyHiDEj-4" target="rILkc2YSf4ri_xyHiDEj-56">
          <mxGeometry width="50" height="50" relative="1" as="geometry">
            <mxPoint x="630" y="80" as="sourcePoint" />
            <mxPoint x="680" y="30" as="targetPoint" />
          </mxGeometry>
        </mxCell>
        <mxCell id="rILkc2YSf4ri_xyHiDEj-58" value="EMail Server" style="text;html=1;align=center;verticalAlign=middle;whiteSpace=wrap;rounded=0;" vertex="1" parent="1">
          <mxGeometry x="710" y="-270" width="60" height="30" as="geometry" />
        </mxCell>
        <mxCell id="rILkc2YSf4ri_xyHiDEj-59" value="" style="endArrow=classic;html=1;rounded=0;exitX=0.5;exitY=0.921;exitDx=0;exitDy=0;exitPerimeter=0;" edge="1" parent="1" source="rILkc2YSf4ri_xyHiDEj-55" target="rILkc2YSf4ri_xyHiDEj-6">
          <mxGeometry width="50" height="50" relative="1" as="geometry">
            <mxPoint x="630" y="80" as="sourcePoint" />
            <mxPoint x="680" y="30" as="targetPoint" />
          </mxGeometry>
        </mxCell>
        <mxCell id="rILkc2YSf4ri_xyHiDEj-60" value="APNS/FCM Notifications" style="text;html=1;align=center;verticalAlign=middle;whiteSpace=wrap;rounded=0;" vertex="1" parent="1">
          <mxGeometry x="55" y="-270" width="90" height="30" as="geometry" />
        </mxCell>
        <mxCell id="rILkc2YSf4ri_xyHiDEj-61" value="" style="endArrow=classic;startArrow=classic;html=1;rounded=0;exitX=0.5;exitY=0;exitDx=0;exitDy=0;entryX=0.5;entryY=1;entryDx=0;entryDy=0;entryPerimeter=0;" edge="1" parent="1" source="rILkc2YSf4ri_xyHiDEj-7" target="rILkc2YSf4ri_xyHiDEj-37">
          <mxGeometry width="50" height="50" relative="1" as="geometry">
            <mxPoint x="630" y="80" as="sourcePoint" />
            <mxPoint x="680" y="30" as="targetPoint" />
          </mxGeometry>
        </mxCell>
        <mxCell id="rILkc2YSf4ri_xyHiDEj-62" value="" style="endArrow=classic;startArrow=classic;html=1;rounded=0;exitX=0.5;exitY=1;exitDx=0;exitDy=0;" edge="1" parent="1" source="rILkc2YSf4ri_xyHiDEj-7" target="rILkc2YSf4ri_xyHiDEj-11">
          <mxGeometry width="50" height="50" relative="1" as="geometry">
            <mxPoint x="70" y="180" as="sourcePoint" />
            <mxPoint x="680" y="30" as="targetPoint" />
          </mxGeometry>
        </mxCell>
        <mxCell id="rILkc2YSf4ri_xyHiDEj-63" value="" style="endArrow=classic;startArrow=classic;html=1;rounded=0;exitX=0.5;exitY=1;exitDx=0;exitDy=0;" edge="1" parent="1" source="rILkc2YSf4ri_xyHiDEj-22" target="rILkc2YSf4ri_xyHiDEj-11">
          <mxGeometry width="50" height="50" relative="1" as="geometry">
            <mxPoint x="630" y="80" as="sourcePoint" />
            <mxPoint x="680" y="30" as="targetPoint" />
          </mxGeometry>
        </mxCell>
        <mxCell id="rILkc2YSf4ri_xyHiDEj-64" value="" style="endArrow=classic;startArrow=classic;html=1;rounded=0;exitX=0.5;exitY=1;exitDx=0;exitDy=0;" edge="1" parent="1" source="rILkc2YSf4ri_xyHiDEj-6" target="rILkc2YSf4ri_xyHiDEj-11">
          <mxGeometry width="50" height="50" relative="1" as="geometry">
            <mxPoint x="630" y="80" as="sourcePoint" />
            <mxPoint x="680" y="30" as="targetPoint" />
          </mxGeometry>
        </mxCell>
        <mxCell id="rILkc2YSf4ri_xyHiDEj-65" value="" style="endArrow=classic;startArrow=classic;html=1;rounded=0;entryX=0.5;entryY=1;entryDx=0;entryDy=0;" edge="1" parent="1" source="rILkc2YSf4ri_xyHiDEj-11" target="rILkc2YSf4ri_xyHiDEj-5">
          <mxGeometry width="50" height="50" relative="1" as="geometry">
            <mxPoint x="630" y="80" as="sourcePoint" />
            <mxPoint x="680" y="30" as="targetPoint" />
          </mxGeometry>
        </mxCell>
        <mxCell id="rILkc2YSf4ri_xyHiDEj-66" value="" style="endArrow=classic;startArrow=classic;html=1;rounded=0;entryX=0.5;entryY=1;entryDx=0;entryDy=0;" edge="1" parent="1" source="rILkc2YSf4ri_xyHiDEj-11" target="rILkc2YSf4ri_xyHiDEj-4">
          <mxGeometry width="50" height="50" relative="1" as="geometry">
            <mxPoint x="630" y="80" as="sourcePoint" />
            <mxPoint x="680" y="30" as="targetPoint" />
          </mxGeometry>
        </mxCell>
        <mxCell id="rILkc2YSf4ri_xyHiDEj-67" value="" style="endArrow=classic;startArrow=classic;html=1;rounded=0;" edge="1" parent="1" source="rILkc2YSf4ri_xyHiDEj-17">
          <mxGeometry width="50" height="50" relative="1" as="geometry">
            <mxPoint x="630" y="80" as="sourcePoint" />
            <mxPoint x="580" y="100" as="targetPoint" />
          </mxGeometry>
        </mxCell>
        <mxCell id="rILkc2YSf4ri_xyHiDEj-68" value="" style="endArrow=classic;startArrow=classic;html=1;rounded=0;entryX=0.5;entryY=1;entryDx=0;entryDy=0;" edge="1" parent="1" source="rILkc2YSf4ri_xyHiDEj-17" target="rILkc2YSf4ri_xyHiDEj-4">
          <mxGeometry width="50" height="50" relative="1" as="geometry">
            <mxPoint x="630" y="80" as="sourcePoint" />
            <mxPoint x="680" y="30" as="targetPoint" />
          </mxGeometry>
        </mxCell>
        <mxCell id="rILkc2YSf4ri_xyHiDEj-69" value="" style="endArrow=classic;startArrow=classic;html=1;rounded=0;exitX=0.5;exitY=1;exitDx=0;exitDy=0;" edge="1" parent="1" source="rILkc2YSf4ri_xyHiDEj-7" target="rILkc2YSf4ri_xyHiDEj-9">
          <mxGeometry width="50" height="50" relative="1" as="geometry">
            <mxPoint x="630" y="80" as="sourcePoint" />
            <mxPoint x="680" y="30" as="targetPoint" />
          </mxGeometry>
        </mxCell>
        <mxCell id="rILkc2YSf4ri_xyHiDEj-70" value="" style="endArrow=classic;startArrow=classic;html=1;rounded=0;exitX=0.5;exitY=1;exitDx=0;exitDy=0;" edge="1" parent="1" source="rILkc2YSf4ri_xyHiDEj-22" target="rILkc2YSf4ri_xyHiDEj-9">
          <mxGeometry width="50" height="50" relative="1" as="geometry">
            <mxPoint x="630" y="80" as="sourcePoint" />
            <mxPoint x="680" y="30" as="targetPoint" />
          </mxGeometry>
        </mxCell>
        <mxCell id="rILkc2YSf4ri_xyHiDEj-71" value="" style="endArrow=classic;startArrow=classic;html=1;rounded=0;exitX=0.5;exitY=1;exitDx=0;exitDy=0;" edge="1" parent="1" source="rILkc2YSf4ri_xyHiDEj-6" target="rILkc2YSf4ri_xyHiDEj-9">
          <mxGeometry width="50" height="50" relative="1" as="geometry">
            <mxPoint x="630" y="80" as="sourcePoint" />
            <mxPoint x="680" y="30" as="targetPoint" />
          </mxGeometry>
        </mxCell>
        <mxCell id="rILkc2YSf4ri_xyHiDEj-72" value="" style="endArrow=classic;startArrow=classic;html=1;rounded=0;exitX=0.5;exitY=1;exitDx=0;exitDy=0;" edge="1" parent="1" source="rILkc2YSf4ri_xyHiDEj-5" target="rILkc2YSf4ri_xyHiDEj-9">
          <mxGeometry width="50" height="50" relative="1" as="geometry">
            <mxPoint x="630" y="80" as="sourcePoint" />
            <mxPoint x="680" y="30" as="targetPoint" />
          </mxGeometry>
        </mxCell>
        <mxCell id="rILkc2YSf4ri_xyHiDEj-73" value="" style="endArrow=classic;startArrow=classic;html=1;rounded=0;exitX=0.5;exitY=1;exitDx=0;exitDy=0;" edge="1" parent="1" source="rILkc2YSf4ri_xyHiDEj-3" target="rILkc2YSf4ri_xyHiDEj-9">
          <mxGeometry width="50" height="50" relative="1" as="geometry">
            <mxPoint x="630" y="80" as="sourcePoint" />
            <mxPoint x="680" y="30" as="targetPoint" />
          </mxGeometry>
        </mxCell>
        <mxCell id="rILkc2YSf4ri_xyHiDEj-74" value="" style="endArrow=classic;startArrow=classic;html=1;rounded=0;exitX=0.5;exitY=1;exitDx=0;exitDy=0;" edge="1" parent="1" source="rILkc2YSf4ri_xyHiDEj-4" target="rILkc2YSf4ri_xyHiDEj-9">
          <mxGeometry width="50" height="50" relative="1" as="geometry">
            <mxPoint x="630" y="80" as="sourcePoint" />
            <mxPoint x="680" y="30" as="targetPoint" />
          </mxGeometry>
        </mxCell>
      </root>
    </mxGraphModel>
  </diagram>
</mxfile>
